<svg width="24" height="24" viewBox="0 0 24 24" fill="none" xmlns="http://www.w3.org/2000/svg">
<path d="M13.7342 20.0298L13.7347 20.0295C14.9793 19.2506 16.1665 18.3831 17.2872 17.4337C19.8581 15.2406 22.5 12.1201 22.5 8.52922C22.5 5.33341 19.8927 3 17.264 3C15.1693 3 13.472 4.11536 12.4298 5.86839C12.3396 6.01999 12.1763 6.11289 11.9999 6.11286C11.8235 6.11282 11.6602 6.01986 11.5701 5.86822C10.5289 4.11546 8.83079 3 6.736 3C4.10633 3 1.5 5.33341 1.5 8.52822C1.5 12.1191 4.1409 15.2385 6.71294 17.4348C8.18131 18.6789 9.76319 19.7817 11.4376 20.7286L13.7342 20.0298ZM13.7342 20.0298C13.2502 20.3336 12.846 20.5682 12.5619 20.7289M13.7342 20.0298L12.5619 20.7289M12.5619 20.7289L12.808 21.1641L12.5619 20.7289ZM12.136 20.9616C12.1285 20.965 12.1212 20.9686 12.1139 20.9723C12.0786 20.9905 12.0396 21 12 21C11.9608 21 11.9221 20.9907 11.8871 20.9728C11.736 20.8938 11.5862 20.8124 11.4377 20.7287L12.136 20.9616Z" fill="#EB5757" stroke="white" stroke-linecap="round" stroke-linejoin="round"/>
</svg>
