<svg width="24" height="24" viewBox="0 0 24 24" fill="none" xmlns="http://www.w3.org/2000/svg">
<path d="M12.808 21.1641L12.5625 20.7285C12.4222 20.8076 12.2795 20.8853 12.136 20.9616C12.1285 20.965 12.1212 20.9686 12.1139 20.9723C12.0786 20.9905 12.0395 21 12 21C11.9608 21 11.9221 20.9907 11.8871 20.9728C11.7361 20.8939 11.5865 20.8126 11.4381 20.7289C9.76349 19.7819 8.18146 18.679 6.71294 17.4348C4.1409 15.2385 1.5 12.1191 1.5 8.52822C1.5 5.33341 4.10633 3 6.736 3C8.83079 3 10.5289 4.11546 11.5701 5.86822C11.6602 6.01986 11.8235 6.11282 11.9999 6.11286C12.1763 6.11289 12.3396 6.01999 12.4298 5.86838C13.472 4.11536 15.1693 3 17.264 3C19.8927 3 22.5 5.33341 22.5 8.52922C22.5 12.1202 19.858 15.2407 17.287 17.4338C16.1664 18.3832 14.9793 19.2506 13.7347 20.0295L13.7342 20.0298C13.2502 20.3336 12.846 20.5682 12.5619 20.7289L12.808 21.1641ZM12.808 21.1641C13.097 21.0007 13.508 20.7621 14 20.4533L12.345 21.4168C12.5 21.3346 12.655 21.2503 12.808 21.1641Z" fill="black" fill-opacity="0.5" stroke="white" stroke-linecap="round" stroke-linejoin="round"/>
</svg>
