<svg width="24" height="24" viewBox="0 0 24 24" fill="none" xmlns="http://www.w3.org/2000/svg">
<path d="M13.6021 19.8176L13.6013 19.8181C13.1218 20.119 12.7214 20.3515 12.4398 20.5107C12.3035 20.5875 12.1648 20.6631 12.0247 20.7377C12.0164 20.7416 12.0082 20.7456 12 20.7498C11.8523 20.6724 11.7057 20.5928 11.5604 20.5109C9.89993 19.5718 8.33119 18.4782 6.87498 17.2444C4.31141 15.0553 1.75 12.0007 1.75 8.52822C1.75 5.47088 4.245 3.25 6.736 3.25C8.73119 3.25 10.3529 4.30864 11.3552 5.99589C11.4903 6.22336 11.7353 6.36281 11.9999 6.36286C12.2644 6.36291 12.5095 6.22356 12.6447 5.99615C13.6481 4.30849 15.269 3.25 17.264 3.25C19.754 3.25 22.25 5.47088 22.25 8.52922C22.25 12.0018 19.6875 15.0574 17.1251 17.2433C16.0137 18.1848 14.8364 19.0451 13.6021 19.8176Z" stroke="#333333" stroke-width="1.5" stroke-linecap="round" stroke-linejoin="round"/>
</svg>
