<svg width="400" height="300" viewBox="0 0 400 300" fill="none" xmlns="http://www.w3.org/2000/svg">
<g clip-path="url(#clip0_1173_4662)">
<rect width="400" height="300" fill="white"/>
<circle cx="200" cy="150" r="150" fill="#F6F8F0"/>
<circle cx="201" cy="151" r="106.225" fill="#E3EBD2"/>
<path d="M125.984 110.337C129.594 108.615 136.566 106.508 135.572 111.857C134.33 118.543 126.248 120.182 131.581 122.07C136.913 123.959 145.96 118.535 142.676 126.749" stroke="#74848B" stroke-width="5" stroke-linecap="round" stroke-linejoin="round"/>
<path d="M237 55C235.833 56.1667 233.2 59.4 232 63" stroke="#74848B" stroke-width="5" stroke-linecap="round" stroke-linejoin="round"/>
<path d="M195.048 63C196.881 63.8333 200.248 65.8 199.048 67C197.548 68.5 190.548 67.5 192.048 69.5C193.548 71.5 198.048 71.5 196.548 73.5C195.048 75.5 188.548 75 191.048 77C193.548 79 199.048 81.5 195.048 82.5C191.048 83.5 187.548 83 188.048 85" stroke="#74848B" stroke-width="5" stroke-linecap="round" stroke-linejoin="round"/>
<circle cx="200" cy="150" r="150" fill="#F6F8F0"/>
<circle cx="201" cy="151" r="106.225" fill="#E3EBD2"/>
<path d="M76.5294 172.806C78.4717 169.309 82.9296 163.549 85.2221 168.483C88.0878 174.651 82.4547 180.673 87.8938 179.119C93.3329 177.564 97.5574 167.9 99.6462 176.496" stroke="#74848B" stroke-width="5" stroke-linecap="round" stroke-linejoin="round"/>
<path d="M315.518 162.999C313.883 163.226 309.833 164.218 306.705 166.367" stroke="#74848B" stroke-width="5" stroke-linecap="round" stroke-linejoin="round"/>
<path d="M277.879 97.5066C277.597 95.21 277.52 90.7144 279.459 91.1048C281.883 91.5927 285.151 98.9705 286.247 96.251C287.342 93.5315 284.595 89.1986 287.522 89.3678C290.449 89.5369 293.914 96.1145 294.399 92.4321C294.884 88.7497 294.041 81.8598 297.488 85.0738C300.936 88.2878 302.57 91.9767 304.276 90.2201" stroke="#74848B" stroke-width="5" stroke-linecap="round" stroke-linejoin="round"/>
<path d="M121 81.5626L119.849 81.1671L119.882 79.9514C119.972 76.5285 115.601 75.0253 113.567 77.78L112.845 78.7584L111.695 78.3629C108.514 77.2693 105.772 80.8532 107.66 83.6367L108.418 84.7548L107.616 85.8411C105.595 88.5775 108.271 92.2964 111.508 91.2504L112.585 90.9021L113.221 91.8396C115.13 94.6549 119.527 93.3682 119.617 89.968L119.652 88.6182L120.938 88.2028C124.138 87.1686 124.18 82.6562 121 81.5626Z" stroke="#74848B" stroke-width="5"/>
<circle cx="215.494" cy="40.4937" r="3.88156" transform="rotate(9.94647 215.494 40.4937)" stroke="#74848B" stroke-width="5"/>
<circle cx="138.5" cy="248.5" r="5" stroke="#74848B" stroke-width="5"/>
<circle cx="199.5" cy="151.5" r="68" fill="white" stroke="#74848B" stroke-width="5"/>
<path d="M169.485 142.314C169.485 142.314 177.359 158.061 202.292 158.061C227.225 158.061 235.099 142.314 235.099 142.314" stroke="#74848B" stroke-width="5" stroke-linecap="round"/>
<path d="M176.047 118.693C176.047 118.693 178.761 123.942 184.576 123.942C190.392 123.942 193.106 118.693 193.106 118.693" stroke="#74848B" stroke-width="5" stroke-linecap="round"/>
<path d="M211.478 118.693C211.478 118.693 214.192 123.942 220.008 123.942C225.824 123.942 228.538 118.693 228.538 118.693" stroke="#74848B" stroke-width="5" stroke-linecap="round"/>
<circle cx="200.622" cy="203.622" r="36.1217" fill="#A2BD69" stroke="#74848B" stroke-width="5"/>
<path d="M185.734 205.242L196.501 215.751C197.359 216.588 198.756 216.487 199.485 215.536L216.999 192.683" stroke="white" stroke-width="7" stroke-linecap="round" stroke-linejoin="round"/>
<path d="M149.126 152.011C143.5 167 154.5 184 166.5 188" stroke="#74848B" stroke-width="5" stroke-linecap="round" stroke-linejoin="round"/>
<path d="M252.964 155.682C254.5 162.5 252.964 181 234.807 187.849" stroke="#74848B" stroke-width="5" stroke-linecap="round" stroke-linejoin="round"/>
<path d="M171 188.5C171 190.985 168.985 193 166.5 193C164.015 193 162 190.985 162 188.5C162 186.015 164.015 184 166.5 184C168.985 184 171 186.015 171 188.5Z" fill="#74848B"/>
<circle cx="234.5" cy="188.5" r="4.5" fill="#74848B"/>
<path d="M277.629 224.153L273.75 222.124C270.949 220.659 267.795 223.363 268.815 226.355L270.228 230.499L267.974 234.329C266.283 237.203 269.186 240.589 272.284 239.356L276.414 237.713L280.293 239.742C283.094 241.207 286.248 238.503 285.228 235.511L283.815 231.367L286.069 227.537C287.76 224.663 284.857 221.277 281.759 222.51L277.629 224.153Z" stroke="#74848B" stroke-width="5"/>
</g>
<defs>
<clipPath id="clip0_1173_4662">
<rect width="400" height="300" fill="white"/>
</clipPath>
</defs>
</svg>
