<svg width="400" height="300" viewBox="0 0 400 300" fill="none" xmlns="http://www.w3.org/2000/svg">
<rect width="400" height="300" fill="white"/>
<g clip-path="url(#clip0_1173_4611)">
<circle cx="200" cy="174" r="151" fill="#F6F8F0"/>
<circle cx="200" cy="174" r="106.225" fill="#E3EBD2"/>
<path d="M264 304.5H136C130.753 304.5 126.5 300.247 126.5 295V77C126.5 70.0964 132.096 64.5 139 64.5H261C267.904 64.5 273.5 70.0964 273.5 77V295C273.5 300.247 269.247 304.5 264 304.5Z" fill="#FBFBFB" stroke="#74848B" stroke-width="5"/>
<rect x="150.012" y="107.51" width="93.8065" height="49.711" rx="3.5" transform="rotate(-4.29827 150.012 107.51)" fill="white" stroke="#74848B" stroke-width="5"/>
<path d="M167.833 138.275L167.561 134.658L177.137 118.464L182.486 118.062L183.613 133.055L186.501 132.838L186.803 136.849L183.915 137.066L184.266 141.735L179.671 142.08L179.32 137.411L167.833 138.275ZM178.558 123.317L172.586 133.884L179.314 133.378L178.558 123.317Z" fill="#74848B"/>
<path d="M189.155 129.001C188.87 125.209 189.325 122.188 190.52 119.938C191.737 117.687 193.932 116.441 197.104 116.203C200.277 115.965 202.622 116.868 204.14 118.914C205.68 120.959 206.593 123.877 206.878 127.669C207.164 131.483 206.7 134.527 205.485 136.8C204.291 139.072 202.108 140.327 198.935 140.566C195.763 140.804 193.406 139.89 191.864 137.824C190.345 135.756 189.441 132.815 189.155 129.001ZM202.348 128.01C202.227 126.388 202.015 125.037 201.714 123.957C201.433 122.854 200.949 121.976 200.262 121.322C199.596 120.667 198.651 120.385 197.426 120.477C196.2 120.569 195.297 120.99 194.715 121.739C194.155 122.486 193.808 123.427 193.673 124.562C193.558 125.672 193.562 127.039 193.684 128.661C193.809 130.327 194.013 131.722 194.296 132.847C194.577 133.95 195.061 134.828 195.748 135.482C196.434 136.114 197.389 136.384 198.614 136.292C199.839 136.2 200.744 135.79 201.327 135.063C201.909 134.314 202.256 133.373 202.369 132.24C202.481 131.086 202.474 129.675 202.348 128.01Z" fill="#74848B"/>
<path d="M210.749 135.049L210.477 131.432L220.053 115.239L225.402 114.837L226.529 129.829L229.417 129.612L229.719 133.623L226.83 133.84L227.181 138.509L222.587 138.854L222.236 134.186L210.749 135.049ZM221.473 120.092L215.502 130.658L222.23 130.152L221.473 120.092Z" fill="#74848B"/>
<path d="M316.81 107.048L314.047 103.652C312.053 101.2 308.087 102.438 307.842 105.589L307.503 109.954L303.92 112.583C301.231 114.555 302.561 118.812 305.894 118.904L310.336 119.026L313.099 122.422C315.094 124.874 319.059 123.635 319.304 120.484L319.643 116.119L323.227 113.491C325.915 111.519 324.586 107.261 321.253 107.17L316.81 107.048Z" stroke="#74848B" stroke-width="5"/>
<path d="M315.136 198.872L315.104 195.395C315.072 192.098 310.917 190.669 308.864 193.25L306.7 195.971L303.252 194.785C299.976 193.659 297.23 197.466 299.332 200.219L301.286 202.779L299.349 205.214C297.255 207.848 299.721 211.632 302.976 210.778L306.657 209.814L308.966 212.838C311.008 215.513 315.279 214.046 315.248 210.681L315.218 207.57L318.334 206.753C321.685 205.875 321.86 201.184 318.585 200.058L315.136 198.872Z" stroke="#74848B" stroke-width="5"/>
<path d="M72.8165 222.658L72.2633 222.23L72.2181 221.367C72.0536 218.223 68.1447 216.878 66.0802 219.255L65.5136 219.908L64.8142 219.905C61.4693 219.89 60.0117 224.126 62.6574 226.173L63.2106 226.601L63.2558 227.464C63.4203 230.608 67.3291 231.953 69.3937 229.576L69.9603 228.923L70.6597 228.926C74.0045 228.941 75.4622 224.705 72.8165 222.658Z" stroke="#74848B" stroke-width="5"/>
<circle cx="89" cy="118" r="5" stroke="#74848B" stroke-width="5"/>
<circle cx="340.5" cy="153.5" r="5" stroke="#74848B" stroke-width="5"/>
<circle cx="255" cy="180" r="7.5" stroke="#74848B" stroke-width="5"/>
<circle cx="105.5" cy="166.5" r="5" stroke="#74848B" stroke-width="5"/>
</g>
<path d="M23 277H375" stroke="#74848B" stroke-width="5" stroke-linecap="round"/>
<defs>
<clipPath id="clip0_1173_4611">
<rect width="400" height="252" fill="white" transform="translate(0 23)"/>
</clipPath>
</defs>
</svg>
