<svg width="400" height="300" viewBox="0 0 400 300" fill="none" xmlns="http://www.w3.org/2000/svg">
<rect width="400" height="300" fill="white"/>
<g clip-path="url(#clip0_911_4159)">
<circle cx="200" cy="174" r="151" fill="#F6F8F0"/>
<circle cx="200" cy="174" r="106.225" fill="#E3EBD2"/>
<path d="M273 304.5H127C121.753 304.5 117.5 300.247 117.5 295V109C117.5 98.7827 125.783 90.5 136 90.5H239.713C241.611 90.5 243.438 91.2197 244.827 92.5139L280.114 125.407C281.636 126.826 282.5 128.813 282.5 130.893V295C282.5 300.247 278.247 304.5 273 304.5Z" fill="#FBFBFB" stroke="#74848B" stroke-width="5"/>
<path d="M239 90V123C239 126.314 241.686 129 245 129H281" stroke="#74848B" stroke-width="5"/>
<path d="M151.425 180.775C151.425 180.775 163.035 203.995 199.8 203.995C236.565 203.995 248.175 180.775 248.175 180.775" stroke="#74848B" stroke-width="5" stroke-linecap="round"/>
<path d="M161.1 145.945C161.1 145.945 165.102 153.685 173.678 153.685C182.253 153.685 186.255 145.945 186.255 145.945" stroke="#74848B" stroke-width="5" stroke-linecap="round"/>
<path d="M213.345 145.945C213.345 145.945 217.347 153.685 225.923 153.685C234.498 153.685 238.5 145.945 238.5 145.945" stroke="#74848B" stroke-width="5" stroke-linecap="round"/>
<path d="M149.49 244.63H250.11" stroke="#74848B" stroke-width="5" stroke-linecap="round"/>
<path d="M149.49 260.11H250.11" stroke="#74848B" stroke-width="5" stroke-linecap="round"/>
<path d="M277 79H294.688C296.391 79 297.314 80.992 296.215 82.2919L279.785 101.708C278.686 103.008 279.609 105 281.312 105H299" stroke="#74848B" stroke-width="5" stroke-linecap="round" stroke-linejoin="round"/>
<path d="M309 54H333.665C335.372 54 336.294 55.9996 335.187 57.2979L311.813 84.7021C310.706 86.0004 311.628 88 313.335 88H338" stroke="#74848B" stroke-width="5" stroke-linecap="round" stroke-linejoin="round"/>
<path d="M101.842 57.5892L104.335 57.7828L101.842 57.5892L101.503 61.9544L97.9195 64.5828C95.231 66.5545 96.5607 70.8125 99.8935 70.9038L104.336 71.0256L107.099 74.422C109.094 76.8739 113.059 75.6355 113.304 72.4844L113.643 68.1193L117.227 65.4909C119.915 63.5191 118.586 59.2612 115.253 59.1698L110.81 59.0481L108.047 55.6516C106.053 53.1998 102.087 54.4382 101.842 57.5892Z" stroke="#74848B" stroke-width="5"/>
<path d="M315.104 195.395C315.072 192.098 310.917 190.669 308.864 193.25L306.7 195.971L303.252 194.785C299.976 193.659 297.23 197.466 299.332 200.219L301.286 202.779L299.349 205.214C297.255 207.848 299.721 211.632 302.976 210.778L306.657 209.814L308.966 212.838C311.008 215.513 315.279 214.046 315.248 210.681L315.218 207.57L318.334 206.753C321.685 205.875 321.86 201.184 318.585 200.058L315.136 198.872L315.104 195.395Z" stroke="#74848B" stroke-width="5"/>
<path d="M86.318 268.458C86.1535 265.313 82.2446 263.968 80.1801 266.346L79.6135 266.998L78.9141 266.995C75.5692 266.981 74.1115 271.217 76.7572 273.264L77.3105 273.692L77.3556 274.555C77.5201 277.699 81.429 279.044 83.4935 276.666L84.0601 276.014L84.7595 276.017C88.1044 276.032 89.5621 271.795 86.9164 269.749L86.3631 269.321L86.318 268.458Z" stroke="#74848B" stroke-width="5"/>
<circle cx="84" cy="131" r="5" stroke="#74848B" stroke-width="5"/>
<circle cx="340.5" cy="153.5" r="5" stroke="#74848B" stroke-width="5"/>
<circle cx="112.5" cy="243.5" r="5" stroke="#74848B" stroke-width="5"/>
</g>
<path d="M23 277H375" stroke="#74848B" stroke-width="5" stroke-linecap="round"/>
<defs>
<clipPath id="clip0_911_4159">
<rect width="400" height="252" fill="white" transform="translate(0 23)"/>
</clipPath>
</defs>
</svg>
