<svg width="1000" height="702" viewBox="0 0 1000 702" fill="none" xmlns="http://www.w3.org/2000/svg">
<path d="M229.124 375.4C206.023 352 191.823 319.8 191.823 284.4C191.823 212.8 249.924 154.7 321.524 154.7C393.125 154.7 451.326 212.7 451.326 284.3L351.425 208.3L229.124 375.4Z" fill="#F9D68D"/>
<path d="M321.625 120.1V134.1" stroke="#BDC9A4" stroke-width="8" stroke-miterlimit="10" stroke-linecap="round" stroke-linejoin="round"/>
<path d="M321.625 94.1001V108.7" stroke="#BDC9A4" stroke-width="8" stroke-miterlimit="10" stroke-linecap="round" stroke-linejoin="round"/>
<path d="M321.625 62V81.1" stroke="#BDC9A4" stroke-width="8" stroke-miterlimit="10" stroke-linecap="round" stroke-linejoin="round"/>
<path d="M293.024 122.601L295.524 136.301" stroke="#BDC9A4" stroke-width="8" stroke-miterlimit="10" stroke-linecap="round" stroke-linejoin="round"/>
<path d="M288.524 97L291.124 111.4" stroke="#BDC9A4" stroke-width="8" stroke-miterlimit="10" stroke-linecap="round" stroke-linejoin="round"/>
<path d="M282.924 65.4011L286.324 84.2011" stroke="#BDC9A4" stroke-width="8" stroke-miterlimit="10" stroke-linecap="round" stroke-linejoin="round"/>
<path d="M265.424 130L270.224 143.1" stroke="#BDC9A4" stroke-width="8" stroke-miterlimit="10" stroke-linecap="round" stroke-linejoin="round"/>
<path d="M256.524 105.601L261.524 119.301" stroke="#BDC9A4" stroke-width="8" stroke-miterlimit="10" stroke-linecap="round" stroke-linejoin="round"/>
<path d="M245.524 75.4011L252.124 93.4011" stroke="#BDC9A4" stroke-width="8" stroke-miterlimit="10" stroke-linecap="round" stroke-linejoin="round"/>
<path d="M239.424 142.1L246.424 154.2" stroke="#BDC9A4" stroke-width="8" stroke-miterlimit="10" stroke-linecap="round" stroke-linejoin="round"/>
<path d="M226.524 119.6L233.824 132.3" stroke="#BDC9A4" stroke-width="8" stroke-miterlimit="10" stroke-linecap="round" stroke-linejoin="round"/>
<path d="M210.424 91.8L220.024 108.4" stroke="#BDC9A4" stroke-width="8" stroke-miterlimit="10" stroke-linecap="round" stroke-linejoin="round"/>
<path d="M216.024 158.5L225.024 169.2" stroke="#BDC9A4" stroke-width="8" stroke-miterlimit="10" stroke-linecap="round" stroke-linejoin="round"/>
<path d="M199.324 138.6L208.724 149.8" stroke="#BDC9A4" stroke-width="8" stroke-miterlimit="10" stroke-linecap="round" stroke-linejoin="round"/>
<path d="M178.624 114L191.024 128.7" stroke="#BDC9A4" stroke-width="8" stroke-miterlimit="10" stroke-linecap="round" stroke-linejoin="round"/>
<path d="M195.823 178.801L206.523 187.701" stroke="#BDC9A4" stroke-width="8" stroke-miterlimit="10" stroke-linecap="round" stroke-linejoin="round"/>
<path d="M175.923 162.101L187.023 171.501" stroke="#BDC9A4" stroke-width="8" stroke-miterlimit="10" stroke-linecap="round" stroke-linejoin="round"/>
<path d="M151.224 141.401L165.924 153.701" stroke="#BDC9A4" stroke-width="8" stroke-miterlimit="10" stroke-linecap="round" stroke-linejoin="round"/>
<path d="M179.323 202.199L191.423 209.199" stroke="#BDC9A4" stroke-width="8" stroke-miterlimit="10" stroke-linecap="round" stroke-linejoin="round"/>
<path d="M156.823 189.199L169.523 196.499" stroke="#BDC9A4" stroke-width="8" stroke-miterlimit="10" stroke-linecap="round" stroke-linejoin="round"/>
<path d="M129.023 173.1L145.623 182.7" stroke="#BDC9A4" stroke-width="8" stroke-miterlimit="10" stroke-linecap="round" stroke-linejoin="round"/>
<path d="M167.224 228.2L180.424 232.9" stroke="#BDC9A4" stroke-width="8" stroke-miterlimit="10" stroke-linecap="round" stroke-linejoin="round"/>
<path d="M142.823 219.3L156.623 224.3" stroke="#BDC9A4" stroke-width="8" stroke-miterlimit="10" stroke-linecap="round" stroke-linejoin="round"/>
<path d="M112.623 208.3L130.623 214.8" stroke="#BDC9A4" stroke-width="8" stroke-miterlimit="10" stroke-linecap="round" stroke-linejoin="round"/>
<path d="M159.823 255.8L173.623 258.2" stroke="#BDC9A4" stroke-width="8" stroke-miterlimit="10" stroke-linecap="round" stroke-linejoin="round"/>
<path d="M134.323 251.3L148.623 253.8" stroke="#BDC9A4" stroke-width="8" stroke-miterlimit="10" stroke-linecap="round" stroke-linejoin="round"/>
<path d="M102.623 245.7L121.523 249" stroke="#BDC9A4" stroke-width="8" stroke-miterlimit="10" stroke-linecap="round" stroke-linejoin="round"/>
<path d="M157.323 284.3H171.323" stroke="#BDC9A4" stroke-width="8" stroke-miterlimit="10" stroke-linecap="round" stroke-linejoin="round"/>
<path d="M131.423 284.3H146.023" stroke="#BDC9A4" stroke-width="8" stroke-miterlimit="10" stroke-linecap="round" stroke-linejoin="round"/>
<path d="M99.2231 284.3H118.423" stroke="#BDC9A4" stroke-width="8" stroke-miterlimit="10" stroke-linecap="round" stroke-linejoin="round"/>
<path d="M159.823 312.801L173.623 310.401" stroke="#BDC9A4" stroke-width="8" stroke-miterlimit="10" stroke-linecap="round" stroke-linejoin="round"/>
<path d="M134.323 317.301L148.623 314.801" stroke="#BDC9A4" stroke-width="8" stroke-miterlimit="10" stroke-linecap="round" stroke-linejoin="round"/>
<path d="M102.623 322.901L121.523 319.601" stroke="#BDC9A4" stroke-width="8" stroke-miterlimit="10" stroke-linecap="round" stroke-linejoin="round"/>
<path d="M167.224 340.5L180.424 335.7" stroke="#BDC9A4" stroke-width="8" stroke-miterlimit="10" stroke-linecap="round" stroke-linejoin="round"/>
<path d="M142.823 349.401L156.623 344.401" stroke="#BDC9A4" stroke-width="8" stroke-miterlimit="10" stroke-linecap="round" stroke-linejoin="round"/>
<path d="M112.623 360.4L130.623 353.8" stroke="#BDC9A4" stroke-width="8" stroke-miterlimit="10" stroke-linecap="round" stroke-linejoin="round"/>
<path d="M179.323 366.401L191.423 359.401" stroke="#BDC9A4" stroke-width="8" stroke-miterlimit="10" stroke-linecap="round" stroke-linejoin="round"/>
<path d="M156.823 379.401L169.523 372.101" stroke="#BDC9A4" stroke-width="8" stroke-miterlimit="10" stroke-linecap="round" stroke-linejoin="round"/>
<path d="M129.023 395.501L145.623 385.901" stroke="#BDC9A4" stroke-width="8" stroke-miterlimit="10" stroke-linecap="round" stroke-linejoin="round"/>
<path d="M475.926 228.2L462.726 232.9" stroke="#BDC9A4" stroke-width="8" stroke-miterlimit="10" stroke-linecap="round" stroke-linejoin="round"/>
<path d="M500.326 219.3L486.526 224.3" stroke="#BDC9A4" stroke-width="8" stroke-miterlimit="10" stroke-linecap="round" stroke-linejoin="round"/>
<path d="M463.826 202.199L451.726 209.199" stroke="#BDC9A4" stroke-width="8" stroke-miterlimit="10" stroke-linecap="round" stroke-linejoin="round"/>
<path d="M486.326 189.199L473.626 196.499" stroke="#BDC9A4" stroke-width="8" stroke-miterlimit="10" stroke-linecap="round" stroke-linejoin="round"/>
<path d="M514.126 173.1L497.526 182.7" stroke="#BDC9A4" stroke-width="8" stroke-miterlimit="10" stroke-linecap="round" stroke-linejoin="round"/>
<path d="M447.326 178.801L436.726 187.701" stroke="#BDC9A4" stroke-width="8" stroke-miterlimit="10" stroke-linecap="round" stroke-linejoin="round"/>
<path d="M467.226 162.101L456.126 171.501" stroke="#BDC9A4" stroke-width="8" stroke-miterlimit="10" stroke-linecap="round" stroke-linejoin="round"/>
<path d="M491.927 141.401L477.227 153.701" stroke="#BDC9A4" stroke-width="8" stroke-miterlimit="10" stroke-linecap="round" stroke-linejoin="round"/>
<path d="M427.126 158.5L418.126 169.2" stroke="#BDC9A4" stroke-width="8" stroke-miterlimit="10" stroke-linecap="round" stroke-linejoin="round"/>
<path d="M443.826 138.6L434.426 149.8" stroke="#BDC9A4" stroke-width="8" stroke-miterlimit="10" stroke-linecap="round" stroke-linejoin="round"/>
<path d="M464.526 114L452.226 128.7" stroke="#BDC9A4" stroke-width="8" stroke-miterlimit="10" stroke-linecap="round" stroke-linejoin="round"/>
<path d="M403.726 142.1L396.726 154.2" stroke="#BDC9A4" stroke-width="8" stroke-miterlimit="10" stroke-linecap="round" stroke-linejoin="round"/>
<path d="M416.625 119.6L409.325 132.3" stroke="#BDC9A4" stroke-width="8" stroke-miterlimit="10" stroke-linecap="round" stroke-linejoin="round"/>
<path d="M432.726 91.8L423.126 108.4" stroke="#BDC9A4" stroke-width="8" stroke-miterlimit="10" stroke-linecap="round" stroke-linejoin="round"/>
<path d="M377.725 130L372.925 143.1" stroke="#BDC9A4" stroke-width="8" stroke-miterlimit="10" stroke-linecap="round" stroke-linejoin="round"/>
<path d="M386.626 105.601L381.626 119.301" stroke="#BDC9A4" stroke-width="8" stroke-miterlimit="10" stroke-linecap="round" stroke-linejoin="round"/>
<path d="M397.625 75.4011L391.025 93.4011" stroke="#BDC9A4" stroke-width="8" stroke-miterlimit="10" stroke-linecap="round" stroke-linejoin="round"/>
<path d="M350.125 122.601L347.625 136.301" stroke="#BDC9A4" stroke-width="8" stroke-miterlimit="10" stroke-linecap="round" stroke-linejoin="round"/>
<path d="M354.625 97L352.025 111.4" stroke="#BDC9A4" stroke-width="8" stroke-miterlimit="10" stroke-linecap="round" stroke-linejoin="round"/>
<path d="M360.225 65.4011L356.825 84.2011" stroke="#BDC9A4" stroke-width="8" stroke-miterlimit="10" stroke-linecap="round" stroke-linejoin="round"/>
<path d="M207.524 645H68.1226" stroke="#8CA83C" stroke-width="8" stroke-miterlimit="10" stroke-linecap="round" stroke-linejoin="round"/>
<path d="M424.526 645H225.024" stroke="#8CA83C" stroke-width="8" stroke-miterlimit="10" stroke-linecap="round" stroke-linejoin="round"/>
<path d="M785.529 645H767.429" stroke="#8CA83C" stroke-width="8" stroke-miterlimit="10" stroke-linecap="round" stroke-linejoin="round"/>
<path d="M889.529 645H802.929" stroke="#8CA83C" stroke-width="8" stroke-miterlimit="10" stroke-linecap="round" stroke-linejoin="round"/>
<path d="M911.03 645H904.53" stroke="#8CA83C" stroke-width="8" stroke-miterlimit="10" stroke-linecap="round" stroke-linejoin="round"/>
<path d="M155.823 474.9L351.925 208.7L461.526 293" stroke="#BDC9A4" stroke-width="8" stroke-miterlimit="10" stroke-linecap="round" stroke-linejoin="round"/>
<path d="M411.425 361L551.527 170.8L789.329 386.8" stroke="#BDC9A4" stroke-width="8" stroke-miterlimit="10" stroke-linecap="round" stroke-linejoin="round"/>
<path d="M108.09 530.69C115.903 524.722 120.116 517.11 117.502 513.686C114.887 510.263 106.434 512.325 98.6207 518.292C90.8086 524.259 86.5951 531.872 89.2099 535.296C91.8248 538.719 100.278 536.657 108.09 530.69Z" fill="#F9D68D"/>
<path d="M108.047 499.005C115.859 493.038 120.072 485.425 117.458 482.002C114.843 478.578 106.39 480.64 98.5767 486.608C90.7646 492.575 86.5511 500.188 89.166 503.611C91.7808 507.034 100.234 504.972 108.047 499.005Z" fill="#F9D68D"/>
<path d="M108.076 607.594C115.889 601.627 120.102 594.014 117.487 590.591C114.873 587.167 106.42 589.229 98.6072 595.197C90.7949 601.164 86.5814 608.776 89.1963 612.2C91.8111 615.623 100.264 613.561 108.076 607.594Z" fill="#F9D68D"/>
<path d="M108.09 568.09C115.902 562.123 120.116 554.51 117.501 551.087C114.886 547.663 106.433 549.725 98.6207 555.693C90.8081 561.66 86.5946 569.272 89.2094 572.696C91.8243 576.119 100.278 574.057 108.09 568.09Z" fill="#F9D68D"/>
<path d="M108.09 530.69C115.903 524.722 120.116 517.11 117.502 513.686C114.887 510.263 106.434 512.325 98.6207 518.292C90.8086 524.259 86.5951 531.872 89.2099 535.296C91.8248 538.719 100.278 536.657 108.09 530.69Z" stroke="#8CA83C" stroke-width="8" stroke-miterlimit="10" stroke-linecap="round" stroke-linejoin="round"/>
<path d="M108.047 499.005C115.859 493.038 120.072 485.425 117.458 482.002C114.843 478.578 106.39 480.64 98.5767 486.608C90.7646 492.575 86.5511 500.188 89.166 503.611C91.7808 507.034 100.234 504.972 108.047 499.005Z" stroke="#8CA83C" stroke-width="8" stroke-miterlimit="10" stroke-linecap="round" stroke-linejoin="round"/>
<path d="M108.076 607.594C115.889 601.627 120.102 594.014 117.487 590.591C114.873 587.167 106.42 589.229 98.6072 595.197C90.7949 601.164 86.5814 608.776 89.1963 612.2C91.8111 615.623 100.264 613.561 108.076 607.594Z" stroke="#8CA83C" stroke-width="8" stroke-miterlimit="10" stroke-linecap="round" stroke-linejoin="round"/>
<path d="M108.09 568.09C115.902 562.123 120.116 554.51 117.501 551.087C114.886 547.663 106.433 549.725 98.6207 555.693C90.8081 561.66 86.5946 569.272 89.2094 572.696C91.8243 576.119 100.278 574.057 108.09 568.09Z" stroke="#8CA83C" stroke-width="8" stroke-miterlimit="10" stroke-linecap="round" stroke-linejoin="round"/>
<path d="M89.1151 503.738C91.7299 500.314 87.5164 492.702 79.704 486.735C71.8915 480.767 63.4386 478.705 60.8237 482.129C58.2089 485.552 62.4223 493.165 70.2348 499.132C78.0472 505.099 86.5002 507.161 89.1151 503.738Z" fill="#F9D68D"/>
<path d="M89.0667 596.363C91.6815 592.939 87.468 585.327 79.6556 579.36C71.8432 573.392 63.3902 571.33 60.7754 574.754C58.1605 578.177 62.374 585.79 70.1864 591.757C77.9989 597.724 86.4518 599.786 89.0667 596.363Z" fill="#F9D68D"/>
<path d="M89.0902 556.751C91.705 553.327 87.4915 545.715 79.6791 539.747C71.8666 533.78 63.4137 531.718 60.7988 535.141C58.184 538.565 62.3974 546.177 70.2099 552.145C78.0223 558.112 86.4753 560.174 89.0902 556.751Z" fill="#F9D68D"/>
<path d="M89.1151 503.738C91.7299 500.314 87.5164 492.702 79.704 486.735C71.8915 480.767 63.4386 478.705 60.8237 482.129C58.2089 485.552 62.4223 493.165 70.2348 499.132C78.0472 505.099 86.5002 507.161 89.1151 503.738Z" stroke="#8CA83C" stroke-width="8" stroke-miterlimit="10" stroke-linecap="round" stroke-linejoin="round"/>
<path d="M89.0667 596.363C91.6815 592.939 87.468 585.327 79.6556 579.36C71.8432 573.392 63.3902 571.33 60.7754 574.754C58.1605 578.177 62.374 585.79 70.1864 591.757C77.9989 597.724 86.4518 599.786 89.0667 596.363Z" stroke="#8CA83C" stroke-width="8" stroke-miterlimit="10" stroke-linecap="round" stroke-linejoin="round"/>
<path d="M89.0902 556.751C91.705 553.327 87.4915 545.715 79.6791 539.747C71.8666 533.78 63.4137 531.718 60.7988 535.141C58.184 538.565 62.3974 546.177 70.2099 552.145C78.0223 558.112 86.4753 560.174 89.0902 556.751Z" stroke="#8CA83C" stroke-width="8" stroke-miterlimit="10" stroke-linecap="round" stroke-linejoin="round"/>
<path d="M89.123 497.8V643.1" stroke="#8CA83C" stroke-width="8" stroke-miterlimit="10" stroke-linecap="round" stroke-linejoin="round"/>
<path d="M191.097 615.276C198.91 609.309 203.123 601.697 200.508 598.273C197.894 594.85 189.441 596.912 181.628 602.879C173.816 608.846 169.602 616.459 172.217 619.882C174.832 623.306 183.285 621.244 191.097 615.276Z" stroke="#8CA83C" stroke-width="8" stroke-miterlimit="10" stroke-linecap="round" stroke-linejoin="round"/>
<path d="M191.097 582.077C198.91 576.11 203.123 568.497 200.508 565.074C197.894 561.651 189.441 563.713 181.628 569.68C173.816 575.647 169.602 583.26 172.217 586.683C174.832 590.107 183.285 588.045 191.097 582.077Z" stroke="#8CA83C" stroke-width="8" stroke-miterlimit="10" stroke-linecap="round" stroke-linejoin="round"/>
<path d="M191.075 552.085C198.887 546.118 203.101 538.505 200.486 535.082C197.871 531.658 189.418 533.721 181.606 539.688C173.793 545.655 169.58 553.268 172.195 556.691C174.809 560.114 183.262 558.052 191.075 552.085Z" stroke="#8CA83C" stroke-width="8" stroke-miterlimit="10" stroke-linecap="round" stroke-linejoin="round"/>
<path d="M172.064 596.354C174.678 592.931 170.465 585.318 162.652 579.351C154.84 573.384 146.387 571.321 143.772 574.745C141.157 578.168 145.371 585.781 153.183 591.748C160.996 597.715 169.449 599.778 172.064 596.354Z" stroke="#8CA83C" stroke-width="8" stroke-miterlimit="10" stroke-linecap="round" stroke-linejoin="round"/>
<path d="M172.087 556.743C174.702 553.319 170.488 545.707 162.676 539.74C154.863 533.772 146.411 531.71 143.796 535.134C141.181 538.557 145.394 546.17 153.207 552.137C161.019 558.104 169.472 560.166 172.087 556.743Z" stroke="#8CA83C" stroke-width="8" stroke-miterlimit="10" stroke-linecap="round" stroke-linejoin="round"/>
<path d="M172.124 552.6V643.1" stroke="#8CA83C" stroke-width="8" stroke-miterlimit="10" stroke-linecap="round" stroke-linejoin="round"/>
<path d="M288.524 295.2L298.324 307.8L322.025 298.4L352.725 310.2L365.425 298.4L389.425 306.3L402.425 286.5L432.926 298.7L444.926 280.2" stroke="#BDC9A4" stroke-width="8" stroke-miterlimit="10" stroke-linecap="round" stroke-linejoin="round"/>
<path d="M489.526 254.9L519.927 247.9L531.027 268.4L562.527 251.4L585.527 265.9L600.427 243.9L639.028 250.3" stroke="#BDC9A4" stroke-width="8" stroke-miterlimit="10" stroke-linecap="round" stroke-linejoin="round"/>
<path d="M617.327 180.1H759.728C760.528 178.2 761.028 176 761.028 173.8C761.028 164.9 753.728 157.6 744.828 157.6C743.028 157.6 741.328 157.9 739.828 158.4C736.128 148.3 726.328 141.1 714.928 141.1C711.928 141.1 709.028 141.6 706.328 142.5C700.628 129.9 687.828 121.1 673.128 121.1C652.927 121.1 636.627 137.4 636.627 157.6C636.627 159.6 636.827 161.6 637.127 163.6C627.927 165.3 620.527 171.6 617.327 180.1Z" stroke="#BDC9A4" stroke-width="8" stroke-miterlimit="10" stroke-linecap="round" stroke-linejoin="round"/>
<path d="M864.429 245.2C864.429 245.1 864.429 245 864.429 244.9C864.429 235.3 856.629 227.6 847.129 227.6C845.329 227.6 843.629 227.9 842.029 228.4C842.029 227.9 842.029 227.4 842.029 226.9C842.029 211.7 829.729 199.4 814.529 199.4C799.329 199.4 787.029 211.7 787.029 226.9C787.029 228.5 787.129 230 787.429 231.5C787.329 231.5 787.129 231.5 787.029 231.5C779.629 231.5 773.529 237.5 773.529 245C773.529 245.1 773.529 245.2 773.529 245.4H864.429V245.2Z" stroke="#BDC9A4" stroke-width="8" stroke-miterlimit="10" stroke-linecap="round" stroke-linejoin="round"/>
<path d="M333.924 645C308.624 645 288.024 624.4 288.024 599.1C288.024 573.8 308.624 553.2 333.924 553.2C359.224 553.2 379.824 573.8 379.824 599.1C379.824 624.4 359.224 645 333.924 645Z" fill="#5A6B3F"/>
<path d="M333.924 645C308.624 645 288.024 624.4 288.024 599.1C288.024 573.8 308.624 553.2 333.924 553.2C359.224 553.2 379.824 573.8 379.824 599.1C379.824 624.4 359.224 645 333.924 645Z" stroke="#8CA83C" stroke-width="8" stroke-miterlimit="10" stroke-linecap="round" stroke-linejoin="round"/>
<path d="M333.925 623.1C320.725 623.1 309.925 612.3 309.925 599.1C309.925 585.9 320.725 575.1 333.925 575.1C347.125 575.1 357.925 585.9 357.925 599.1C357.925 612.3 347.125 623.1 333.925 623.1Z" fill="#F9D68D"/>
<path d="M333.925 623.1C320.725 623.1 309.925 612.3 309.925 599.1C309.925 585.9 320.725 575.1 333.925 575.1C347.125 575.1 357.925 585.9 357.925 599.1C357.925 612.3 347.125 623.1 333.925 623.1Z" stroke="#8CA83C" stroke-width="8" stroke-miterlimit="10" stroke-linecap="round" stroke-linejoin="round"/>
<path d="M333.925 607C329.525 607 326.025 603.4 326.025 599.1C326.025 594.7 329.625 591.2 333.925 591.2C338.325 591.2 341.825 594.8 341.825 599.1C341.825 603.4 338.325 607 333.925 607Z" fill="#F9D68D"/>
<path d="M333.925 607C329.525 607 326.025 603.4 326.025 599.1C326.025 594.7 329.625 591.2 333.925 591.2C338.325 591.2 341.825 594.8 341.825 599.1C341.825 603.4 338.325 607 333.925 607Z" stroke="#8CA83C" stroke-width="8" stroke-miterlimit="10" stroke-linecap="round" stroke-linejoin="round"/>
<path d="M700.928 459.4L691.528 423.7C687.828 409.4 675.628 399 660.928 397.4C618.928 392.9 568.027 390.3 508.627 390.3C440.626 390.3 336.125 395.5 304.725 399.1C299.025 399.7 294.125 403.4 291.825 408.7L272.925 452.9C264.224 468.5 258.924 485.7 257.424 503.5L257.024 602.9L278.125 603.3C278.025 601.9 277.925 600.5 277.925 599.1C277.925 568.2 302.925 543.2 333.825 543.2C364.725 543.2 389.726 568.2 389.726 599.1C389.726 600.9 389.626 602.7 389.426 604.4L536.427 606.2C536.127 603.9 535.927 601.5 535.927 599.1C535.927 568.2 560.927 543.2 591.827 543.2C622.728 543.2 647.728 568.2 647.728 599.1C647.728 601.9 647.528 604.6 647.128 607.3L706.428 607.9V504.3C706.728 489.2 704.728 474.1 700.928 459.4Z" fill="#CDDA9C"/>
<g opacity="0.36">
<path opacity="0.36" d="M268.225 602.9L268.625 503.5C270.125 485.7 275.425 468.5 284.125 452.9L303.025 408.7C305.325 403.4 310.225 399.8 315.925 399.1C346.425 395.6 445.726 390.6 513.727 390.3C512.027 390.3 510.327 390.3 508.627 390.3C440.626 390.3 336.125 395.5 304.725 399.1C299.025 399.7 294.125 403.4 291.825 408.7L272.925 452.9C264.224 468.5 258.924 485.7 257.424 503.5L257.024 602.9L278.125 603.3C278.125 603.2 278.125 603.2 278.125 603.1L268.225 602.9Z" fill="#CDDA9C"/>
<path opacity="0.36" d="M658.527 607.3C658.927 604.6 659.127 601.9 659.127 599.1C659.127 568.2 634.127 543.2 603.227 543.2C601.327 543.2 599.527 543.3 597.627 543.5C625.927 546.3 647.927 570.1 647.927 599.1C647.927 601.9 647.727 604.6 647.327 607.3L706.627 607.9V607.8L658.527 607.3Z" fill="#CDDA9C"/>
<path opacity="0.36" d="M400.725 604.3C400.925 602.6 401.025 600.8 401.025 599C401.025 568.1 376.025 543.1 345.125 543.1C343.225 543.1 341.425 543.2 339.525 543.4C367.825 546.2 389.825 570 389.825 599C389.825 600.8 389.725 602.6 389.525 604.3L536.527 606.1V606L400.725 604.3Z" fill="#CDDA9C"/>
</g>
<path opacity="0.36" d="M400.925 595.3H534.526V582H398.325C399.725 586.3 400.525 590.7 400.925 595.3Z" fill="#CDDA9C"/>
<g opacity="0.25">
<path opacity="0.25" d="M702.928 458.4L693.528 422.7C689.828 408.4 677.628 398 662.928 396.4C620.927 391.9 570.027 389.3 510.626 389.3C442.626 389.3 338.125 394.5 306.724 398.1C301.824 398.7 297.424 401.5 294.924 405.7C294.924 405.7 294.924 404 295.024 404C326.425 400.4 430.926 396.9 498.926 396.9C558.427 396.9 609.227 399.5 651.227 404C665.928 405.6 678.028 416 681.828 430.3L691.228 466C695.128 480.7 697.028 495.8 697.028 510.9V606.8L708.828 606.9V503.3C708.728 488.2 706.728 473.1 702.928 458.4Z" fill="#CDDA9C"/>
</g>
<path d="M700.928 459.4L691.528 423.7C687.828 409.4 675.628 399 660.928 397.4C618.928 392.9 568.027 390.3 508.627 390.3C440.626 390.3 336.125 395.5 304.725 399.1C299.025 399.7 294.125 403.4 291.825 408.7L272.925 452.9C264.224 468.5 258.924 485.7 257.424 503.5L257.024 602.9L278.125 603.3C278.025 601.9 277.925 600.5 277.925 599.1C277.925 568.2 302.925 543.2 333.825 543.2C364.725 543.2 389.726 568.2 389.726 599.1C389.726 600.9 389.626 602.7 389.426 604.4L536.427 606.2C536.127 603.9 535.927 601.5 535.927 599.1C535.927 568.2 560.927 543.2 591.827 543.2C622.728 543.2 647.728 568.2 647.728 599.1C647.728 601.9 647.528 604.6 647.128 607.3L706.428 607.9V504.3C706.728 489.2 704.728 474.1 700.928 459.4Z" stroke="#8CA83C" stroke-width="8" stroke-miterlimit="10" stroke-linecap="round" stroke-linejoin="round"/>
<path d="M592.027 645C566.727 645 546.127 624.4 546.127 599.1C546.127 573.8 566.727 553.2 592.027 553.2C617.327 553.2 637.927 573.8 637.927 599.1C637.927 624.4 617.327 645 592.027 645Z" fill="#5A6B3F"/>
<path d="M592.027 645C566.727 645 546.127 624.4 546.127 599.1C546.127 573.8 566.727 553.2 592.027 553.2C617.327 553.2 637.927 573.8 637.927 599.1C637.927 624.4 617.327 645 592.027 645Z" stroke="#8CA83C" stroke-width="8" stroke-miterlimit="10" stroke-linecap="round" stroke-linejoin="round"/>
<path d="M592.027 623.1C578.827 623.1 568.027 612.3 568.027 599.1C568.027 585.9 578.827 575.1 592.027 575.1C605.227 575.1 616.027 585.9 616.027 599.1C616.027 612.3 605.227 623.1 592.027 623.1Z" fill="#F9D68D"/>
<path d="M592.027 623.1C578.827 623.1 568.027 612.3 568.027 599.1C568.027 585.9 578.827 575.1 592.027 575.1C605.227 575.1 616.027 585.9 616.027 599.1C616.027 612.3 605.227 623.1 592.027 623.1Z" stroke="#8CA83C" stroke-width="8" stroke-miterlimit="10" stroke-linecap="round" stroke-linejoin="round"/>
<path d="M592.027 607C587.627 607 584.127 603.4 584.127 599.1C584.127 594.7 587.727 591.2 592.027 591.2C596.427 591.2 599.927 594.8 599.927 599.1C599.927 603.4 596.427 607 592.027 607Z" fill="#F9D68D"/>
<path d="M592.027 607C587.627 607 584.127 603.4 584.127 599.1C584.127 594.7 587.727 591.2 592.027 591.2C596.427 591.2 599.927 594.8 599.927 599.1C599.927 603.4 596.427 607 592.027 607Z" stroke="#8CA83C" stroke-width="8" stroke-miterlimit="10" stroke-linecap="round" stroke-linejoin="round"/>
<path d="M257.024 611.8H246.124C241.624 611.8 238.024 608.2 238.024 603.7V571.4C238.024 566.9 241.624 563.3 246.124 563.3H257.024V611.8Z" fill="white"/>
<path d="M257.024 611.8H246.124C241.624 611.8 238.024 608.2 238.024 603.7V571.4C238.024 566.9 241.624 563.3 246.124 563.3H257.024V611.8Z" stroke="#8CA83C" stroke-width="8" stroke-miterlimit="10" stroke-linecap="round" stroke-linejoin="round"/>
<path d="M258.624 550.3H254.624C251.624 550.3 249.224 547.9 249.224 544.9V520.1C249.224 517.1 251.624 514.7 254.624 514.7H258.624C261.624 514.7 264.024 517.1 264.024 520.1V544.9C264.024 547.9 261.624 550.3 258.624 550.3Z" fill="white"/>
<path d="M258.624 550.3H254.624C251.624 550.3 249.224 547.9 249.224 544.9V520.1C249.224 517.1 251.624 514.7 254.624 514.7H258.624C261.624 514.7 264.024 517.1 264.024 520.1V544.9C264.024 547.9 261.624 550.3 258.624 550.3Z" stroke="#8CA83C" stroke-width="8" stroke-miterlimit="10" stroke-linecap="round" stroke-linejoin="round"/>
<path d="M714.328 619.5H671.328C666.328 619.5 662.328 615.5 662.328 610.5V603.5C662.328 598.5 666.328 594.5 671.328 594.5H714.328C719.328 594.5 723.328 598.5 723.328 603.5V610.5C723.328 615.4 719.228 619.5 714.328 619.5Z" fill="white"/>
<path d="M671.928 609.8C671.928 607.3 674.028 605.2 676.528 605.2H723.228V603.5C723.228 598.5 719.228 594.5 714.228 594.5H671.228C666.228 594.5 662.228 598.5 662.228 603.5V610.5C662.228 615.5 666.228 619.5 671.228 619.5H671.928V609.8Z" fill="#B7D0AE"/>
<path d="M714.328 619.5H671.328C666.328 619.5 662.328 615.5 662.328 610.5V603.5C662.328 598.5 666.328 594.5 671.328 594.5H714.328C719.328 594.5 723.328 598.5 723.328 603.5V610.5C723.328 615.4 719.228 619.5 714.328 619.5Z" stroke="#8CA83C" stroke-width="8" stroke-miterlimit="10" stroke-linecap="round" stroke-linejoin="round"/>
<path d="M641.527 482.6H595.227C589.927 482.6 585.627 478.3 585.627 473V426.3C585.627 421 589.927 416.7 595.227 416.7H623.327C634.427 416.7 643.827 424.8 645.527 435.8L650.927 471.5C651.927 477.4 647.427 482.6 641.527 482.6Z" fill="#F9D68D"/>
<path opacity="0.56" d="M605.227 437.8C605.227 432.5 609.527 428.2 614.827 428.2H642.927C639.027 421.3 631.627 416.8 623.327 416.8H595.227C589.927 416.8 585.627 421.1 585.627 426.4V473.1C585.627 478.4 589.927 482.7 595.227 482.7H605.227V437.8Z" fill="#F9D68D"/>
<path d="M641.527 482.6H595.227C589.927 482.6 585.627 478.3 585.627 473V426.3C585.627 421 589.927 416.7 595.227 416.7H623.327C634.427 416.7 643.827 424.8 645.527 435.8L650.927 471.5C651.927 477.4 647.427 482.6 641.527 482.6Z" stroke="#8CA83C" stroke-width="8" stroke-miterlimit="10" stroke-linecap="round" stroke-linejoin="round"/>
<path d="M554.827 481.6H452.626C447.326 481.6 443.026 477.3 443.026 472V425.3C443.026 420 447.326 415.7 452.626 415.7H554.827C560.127 415.7 564.427 420 564.427 425.3V472C564.327 477.3 560.127 481.6 554.827 481.6Z" fill="#F9D68D"/>
<path opacity="0.56" d="M461.526 435.6C461.526 430.3 465.826 426 471.126 426H564.327V425.3C564.327 420 560.027 415.7 554.727 415.7H452.626C447.326 415.7 443.026 420 443.026 425.3V472C443.026 477.3 447.326 481.6 452.626 481.6H461.626V435.6H461.526Z" fill="#F9D68D"/>
<path d="M554.827 481.6H452.626C447.326 481.6 443.026 477.3 443.026 472V425.3C443.026 420 447.326 415.7 452.626 415.7H554.827C560.127 415.7 564.427 420 564.427 425.3V472C564.327 477.3 560.127 481.6 554.827 481.6Z" stroke="#8CA83C" stroke-width="8" stroke-miterlimit="10" stroke-linecap="round" stroke-linejoin="round"/>
<path d="M396.524 482.6H300.224C294.824 482.6 290.924 476.6 292.424 470.5L303.524 423.8C304.524 419.7 307.724 416.8 311.324 416.8H396.524C401.024 416.8 404.624 421.1 404.624 426.4V473.1C404.724 478.3 401.024 482.6 396.524 482.6Z" fill="#F9D68D"/>
<path opacity="0.56" d="M310.424 480.3L321.524 433.6C322.524 429.5 325.724 426.6 329.324 426.6H404.624V426.3C404.624 421 401.024 416.7 396.524 416.7H311.324C307.724 416.7 304.524 419.6 303.524 423.7L292.424 470.4C291.024 476.5 294.824 482.5 300.224 482.5H310.124C310.224 481.8 310.324 481.1 310.424 480.3Z" fill="#F9D68D"/>
<path d="M396.524 482.6H300.224C294.824 482.6 290.924 476.6 292.424 470.5L303.524 423.8C304.524 419.7 307.724 416.8 311.324 416.8H396.524C401.024 416.8 404.624 421.1 404.624 426.4V473.1C404.724 478.3 401.024 482.6 396.524 482.6Z" stroke="#8CA83C" stroke-width="8" stroke-miterlimit="10" stroke-linecap="round" stroke-linejoin="round"/>
<path opacity="0.48" d="M406.425 395C417.825 395 427.025 404.2 427.025 415.6V604.8" stroke="#8CA83C" stroke-width="2" stroke-miterlimit="10" stroke-linecap="round" stroke-linejoin="round"/>
<path d="M379.825 506.6H409.825" stroke="#8CA83C" stroke-width="8" stroke-miterlimit="10" stroke-linecap="round" stroke-linejoin="round"/>
<path d="M535.527 504.3H561.127" stroke="#8CA83C" stroke-width="8" stroke-miterlimit="10" stroke-linecap="round" stroke-linejoin="round"/>
<path d="M709.328 573.8H705.428V478.3H709.328C715.928 478.3 721.328 483.7 721.328 490.3V561.8C721.328 568.4 715.928 573.8 709.328 573.8Z" fill="#B7D0AE"/>
<path d="M709.328 573.8H705.428V478.3H709.328C715.928 478.3 721.328 483.7 721.328 490.3V561.8C721.328 568.4 715.928 573.8 709.328 573.8Z" stroke="#8CA83C" stroke-width="8" stroke-miterlimit="10" stroke-linecap="round" stroke-linejoin="round"/>
<path d="M662.328 426.8H674.428" stroke="#8CA83C" stroke-width="8" stroke-miterlimit="10" stroke-linecap="round" stroke-linejoin="round"/>
<path d="M667.328 444H679.428" stroke="#8CA83C" stroke-width="8" stroke-miterlimit="10" stroke-linecap="round" stroke-linejoin="round"/>
<path d="M672.028 461.1H684.128" stroke="#8CA83C" stroke-width="8" stroke-miterlimit="10" stroke-linecap="round" stroke-linejoin="round"/>
<path d="M674.028 478.3H686.228" stroke="#8CA83C" stroke-width="8" stroke-miterlimit="10" stroke-linecap="round" stroke-linejoin="round"/>
<path d="M527.826 611H398.525C393.125 611 388.825 606.7 388.825 601.3C388.825 595.9 393.125 591.6 398.525 591.6H527.826C533.226 591.6 537.527 595.9 537.527 601.3C537.527 606.6 533.226 611 527.826 611Z" fill="white"/>
<path d="M527.826 611H398.525C393.125 611 388.825 606.7 388.825 601.3C388.825 595.9 393.125 591.6 398.525 591.6H527.826C533.226 591.6 537.527 595.9 537.527 601.3C537.527 606.6 533.226 611 527.826 611Z" fill="white"/>
<path d="M537.527 591.6H388.825V601.3H537.527V591.6Z" fill="#B7D0AE"/>
<path d="M527.826 611H398.525C393.125 611 388.825 606.7 388.825 601.3C388.825 595.9 393.125 591.6 398.525 591.6H527.826C533.226 591.6 537.527 595.9 537.527 601.3C537.527 606.6 533.226 611 527.826 611Z" stroke="#8CA83C" stroke-width="8" stroke-miterlimit="10" stroke-linecap="round" stroke-linejoin="round"/>
<path d="M319.225 457.8L338.825 438.1" stroke="#8CA83C" stroke-width="4" stroke-miterlimit="10" stroke-linecap="round" stroke-linejoin="round"/>
<path d="M335.825 459.6L362.225 433" stroke="#8CA83C" stroke-width="4" stroke-miterlimit="10" stroke-linecap="round" stroke-linejoin="round"/>
<path d="M471.526 455.5L491.026 435.7" stroke="#8CA83C" stroke-width="4" stroke-miterlimit="10" stroke-linecap="round" stroke-linejoin="round"/>
<path d="M488.126 457.3L514.526 430.7" stroke="#8CA83C" stroke-width="4" stroke-miterlimit="10" stroke-linecap="round" stroke-linejoin="round"/>
<path d="M598.327 457.4L614.427 441.1" stroke="#8CA83C" stroke-width="4" stroke-miterlimit="10" stroke-linecap="round" stroke-linejoin="round"/>
<path d="M612.027 458.9L633.727 436.9" stroke="#8CA83C" stroke-width="4" stroke-miterlimit="10" stroke-linecap="round" stroke-linejoin="round"/>
<path d="M762.729 510.2L845.329 314.6C847.129 310.4 853.13 310.4 854.93 314.6L937.53 510.2C947.43 533.6 926.33 558.1 896.33 558.1H803.929C773.929 558.1 752.829 533.6 762.729 510.2Z" fill="#F9D68D"/>
<path d="M762.729 510.2L845.329 314.6C847.129 310.4 853.13 310.4 854.93 314.6L937.53 510.2C947.43 533.6 926.33 558.1 896.33 558.1H803.929C773.929 558.1 752.829 533.6 762.729 510.2Z" fill="#F9D68D"/>
<path opacity="0.56" d="M803.129 519.4L862.029 331.3L855.029 314.6C853.229 310.4 847.229 310.4 845.429 314.6L762.829 510.2C752.929 533.6 774.029 558.1 804.029 558.1H811.029C802.229 550.7 798.829 538.4 803.129 519.4Z" fill="#F9D68D"/>
<path d="M850.129 645.001V350.601" stroke="#8CA83C" stroke-width="8" stroke-miterlimit="10" stroke-linecap="round" stroke-linejoin="round"/>
<path d="M873.929 391.601L850.129 414.301L826.429 391.601" stroke="#8CA83C" stroke-width="8" stroke-miterlimit="10" stroke-linecap="round" stroke-linejoin="round"/>
<path d="M878.429 434.8L850.129 461.9L821.829 434.8" stroke="#8CA83C" stroke-width="8" stroke-miterlimit="10" stroke-linecap="round" stroke-linejoin="round"/>
<path d="M897.329 484L850.129 521.5L802.929 484" stroke="#8CA83C" stroke-width="8" stroke-miterlimit="10" stroke-linecap="round" stroke-linejoin="round"/>
<path d="M585.027 56L573.027 68L561.027 56" stroke="#BDC9A4" stroke-width="8" stroke-miterlimit="10" stroke-linecap="round" stroke-linejoin="round"/>
<path d="M674.328 71.6001L662.328 83.6001L650.228 71.6001" stroke="#BDC9A4" stroke-width="8" stroke-miterlimit="10" stroke-linecap="round" stroke-linejoin="round"/>
<path d="M864.529 136.1L852.429 148.1L840.429 136.1" stroke="#BDC9A4" stroke-width="8" stroke-miterlimit="10" stroke-linecap="round" stroke-linejoin="round"/>
<path d="M748.028 645H470.026" stroke="#8CA83C" stroke-width="8" stroke-miterlimit="10" stroke-linecap="round" stroke-linejoin="round"/>
<path d="M473.726 645H440.026" stroke="#8CA83C" stroke-width="8" stroke-miterlimit="10" stroke-linecap="round" stroke-linejoin="round"/>
</svg>
