<svg width="200" height="46" viewBox="0 0 200 46" fill="none" xmlns="http://www.w3.org/2000/svg">
<g clip-path="url(#clip0_314_2463)">
<circle cx="28.7343" cy="19.3335" r="16.3335" fill="#E3EBD2"/>
<path d="M36.9225 19.6922C38.9057 23.4255 39.5929 27.824 38.8768 32.1389L21.9619 27.6066L5.04689 23.0742C6.58418 18.9793 9.37864 15.5137 12.9628 13.2722C17.0856 10.6939 21.9078 9.94704 26.3731 11.1435C30.8384 12.34 34.6412 15.3979 36.9225 19.6922Z" fill="white" stroke="#A2BD69" stroke-width="4"/>
<line x1="26.0175" y1="10.958" x2="17.5627" y2="42.5118" stroke="#A2BD69" stroke-width="4"/>
<path d="M27.8279 12.0967C31.6041 16.5978 31.3317 24.3757 30.6639 28.5584" stroke="#A2BD69" stroke-width="4" stroke-linecap="round"/>
<path d="M24.447 11.1906C18.9261 13.2006 15.273 20.0727 13.76 24.0289" stroke="#A2BD69" stroke-width="4" stroke-linecap="round"/>
</g>
<path d="M72.2362 5.84314V11.1765H64.5298V33.5686H57.6261V11.1765H50V5.84314H72.2362Z" fill="#333333"/>
<path d="M81.9928 15.8039C82.849 14.4706 83.9461 13.4118 85.284 12.6275C86.6487 11.8431 88.1204 11.451 89.6992 11.451V18.6275H87.7324C85.9129 18.6275 84.4947 19.0065 83.4779 19.7647C82.4878 20.5229 81.9928 21.8039 81.9928 23.6078V33.5686H75.1292V11.6863H81.9928V15.8039Z" fill="#333333"/>
<path d="M91.9296 5.52941C91.9296 4.50981 92.3042 3.6732 93.0535 3.01961C93.8027 2.33987 94.7928 2 96.0237 2C97.2546 2 98.2446 2.33987 98.9938 3.01961C99.7431 3.6732 100.118 4.50981 100.118 5.52941C100.118 6.52288 99.7431 7.35948 98.9938 8.03922C98.2446 8.69281 97.2546 9.01961 96.0237 9.01961C94.7928 9.01961 93.8027 8.69281 93.0535 8.03922C92.3042 7.35948 91.9296 6.52288 91.9296 5.52941ZM99.4354 11.6863V33.5686H92.5718V11.6863H99.4354Z" fill="#333333"/>
<path d="M118.142 11.4118C119.988 11.4118 121.634 11.8693 123.079 12.7843C124.551 13.6732 125.701 14.9673 126.531 16.6667C127.387 18.3399 127.815 20.3268 127.815 22.6274C127.815 24.902 127.387 26.8889 126.531 28.5882C125.701 30.2876 124.551 31.5948 123.079 32.5098C121.634 33.3987 119.988 33.8431 118.142 33.8431C116.429 33.8431 114.958 33.4641 113.727 32.7059C112.496 31.9477 111.6 30.915 111.038 29.6078V44H104.174V11.6863H111.038V15.6471C111.6 14.3399 112.496 13.3072 113.727 12.549C114.958 11.7908 116.429 11.4118 118.142 11.4118ZM115.934 17.2941C114.489 17.2941 113.299 17.7778 112.362 18.7451C111.452 19.6863 110.997 20.9804 110.997 22.6274C110.997 24.2484 111.452 25.5425 112.362 26.5098C113.299 27.4771 114.489 27.9608 115.934 27.9608C117.406 27.9608 118.583 27.4902 119.466 26.549C120.376 25.6078 120.831 24.3007 120.831 22.6274C120.831 20.9542 120.376 19.6471 119.466 18.7059C118.583 17.7647 117.406 17.2941 115.934 17.2941Z" fill="#333333"/>
<path d="M145.345 11.4118C147.191 11.4118 148.837 11.8693 150.281 12.7843C151.753 13.6732 152.904 14.9673 153.733 16.6667C154.59 18.3399 155.018 20.3268 155.018 22.6274C155.018 24.902 154.59 26.8889 153.733 28.5882C152.904 30.2876 151.753 31.5948 150.281 32.5098C148.837 33.3987 147.191 33.8431 145.345 33.8431C143.632 33.8431 142.16 33.4641 140.929 32.7059C139.699 31.9477 138.802 30.915 138.24 29.6078V44H131.377V11.6863H138.24V15.6471C138.802 14.3399 139.699 13.3072 140.929 12.549C142.16 11.7908 143.632 11.4118 145.345 11.4118ZM143.137 17.2941C141.692 17.2941 140.501 17.7778 139.565 18.7451C138.655 19.6863 138.2 20.9804 138.2 22.6274C138.2 24.2484 138.655 25.5425 139.565 26.5098C140.501 27.4771 141.692 27.9608 143.137 27.9608C144.609 27.9608 145.786 27.4902 146.669 26.549C147.579 25.6078 148.034 24.3007 148.034 22.6274C148.034 20.9542 147.579 19.6471 146.669 18.7059C145.786 17.7647 144.609 17.2941 143.137 17.2941Z" fill="#333333"/>
<path d="M179.852 22.0392C179.852 22.5882 179.785 23.1895 179.652 23.8431H164.118C164.199 25.4902 164.627 26.6797 165.403 27.4118C166.179 28.1176 167.169 28.4706 168.373 28.4706C169.39 28.4706 170.233 28.2222 170.902 27.7255C171.57 27.2288 172.012 26.5882 172.226 25.8039H179.491C179.197 27.3464 178.554 28.732 177.564 29.9608C176.574 31.1634 175.317 32.1176 173.791 32.8235C172.266 33.5033 170.567 33.8431 168.694 33.8431C166.5 33.8431 164.546 33.3987 162.834 32.5098C161.148 31.5948 159.824 30.2876 158.86 28.5882C157.897 26.8889 157.415 24.902 157.415 22.6274C157.415 20.3268 157.884 18.3399 158.82 16.6667C159.783 14.9673 161.121 13.6732 162.834 12.7843C164.546 11.8693 166.5 11.4118 168.694 11.4118C170.915 11.4118 172.868 11.8562 174.554 12.7451C176.24 13.634 177.538 14.8889 178.447 16.5098C179.384 18.1046 179.852 19.9477 179.852 22.0392ZM172.908 21.0196C172.935 19.5817 172.534 18.5098 171.704 17.8039C170.902 17.0719 169.898 16.7059 168.694 16.7059C167.436 16.7059 166.393 17.0719 165.563 17.8039C164.734 18.5359 164.265 19.6078 164.158 21.0196H172.908Z" fill="#333333"/>
<path d="M190.294 15.8039C191.15 14.4706 192.247 13.4118 193.585 12.6275C194.95 11.8431 196.421 11.451 198 11.451V18.6275H196.033C194.214 18.6275 192.796 19.0065 191.779 19.7647C190.789 20.5229 190.294 21.8039 190.294 23.6078V33.5686H183.43V11.6863H190.294V15.8039Z" fill="#333333"/>
<defs>
<clipPath id="clip0_314_2463">
<rect width="46" height="46" fill="white"/>
</clipPath>
</defs>
</svg>
